#N canvas 827 239 527 327 12;
#X obj 19 419 dac~;
#X msg 159 59 stop;
#X msg 18 56 loop \$1;
#X obj 19 19 tgl 15 0 empty empty empty 17 7 0 10 #dcdcdc #000000 #000000 0 1;
#X obj 19 159 play.file~ drum_loop.wav;
#X obj 19 259 gain~ 1 0 20 0 0.537152;
#X obj 79 259 gain~ 1 0 20 0 0;
#X msg 99 59 start;
#X obj 19 219 nn~ darbouka.ts forward;
#X connect 1 0 4 0 empty;
#X connect 2 0 4 0 empty;
#X connect 3 0 2 0 empty;
#X connect 4 0 6 0 empty;
#X connect 4 0 8 0 empty;
#X connect 5 0 0 0 empty;
#X connect 5 0 0 1 empty;
#X connect 6 0 0 1 empty;
#X connect 7 0 4 0 empty;
#X connect 8 0 5 0 empty;
