#N struct 1105-point float x0 float y0 float xs float ys float fg float in float gridx float gridy;
#N canvas 827 239 527 327 12;
#X obj 219 139 oscparse;
#X listbox 219 179 34 0 0 0 - - - 0;
#X obj 219 99 netreceive -u -b;
#X msg 219 59 listen 8000;
#X obj 219 259 route oscControl;
#X obj 219 19 loadbang;
#X obj 299 19 bng 25 250 50 0 empty empty empty 17 7 0 10 #191919 #e1e1e1 #e1e1e1;
#X text 19 18 Bang when the patch is open;
#X text 339 18 Manual bang;
#X text 319 58 Choose network port to listen to;
#X text 19 138 Parse raw OSC messages;
#X text 19 178 Overview of messages received;
#X obj 219 219 list trim;
#X obj 219 299 route slider1 slider2 slider3 slider4 slider2Dx slider2Dy, f 48;
#X obj 219 539 multi.vsl 200 127 0 127 8 empty empty empty 255 255 255 220 220 220 0 0 0 0 0 0 holder holder 85.6496 88.5395 91.9435 85.8363 89 0 39 51;
#X obj 219 459 * 127;
#X obj 419 419 slider2D 127 127 0 127 0 127 1 255 255 255 0 0 0 0 0 0 0 0 empty empty;
#X obj 419 379 pack f f;
#X obj 419 339 * 127;
#X obj 479 339 * 127;
#X obj 419 599 / 127;
#X obj 479 599 / 127;
#X obj 259 459 * 127;
#X obj 299 459 * 127, f 6;
#X obj 339 459 * 127;
#X obj 219 499 pack f f f f;
#X obj 259 359 t b f;
#X obj 302 359 t b f;
#X obj 345 359 t b f;
#X obj 419 559 unpack f f;
#X text 839 318 You can select any incomming sensors' signals, f 25;
#X obj 579 339 unpack f f f, f 14;
#X obj 699 339 unpack f f f, f 14;
#X listbox 579 379 3 0 0 0 - - - 8;
#X listbox 619 379 3 0 0 0 - - - 8;
#X listbox 659 379 3 0 0 0 - - - 8;
#X listbox 699 379 6 0 0 0 - - - 8;
#X listbox 739 379 6 0 0 0 - - - 8;
#X listbox 779 379 6 0 0 0 - - - 8;
#X obj 579 299 route accelerometer gamerotationvector;
#X obj 679 539 multi.vsl 200 127 0 127 8 empty empty empty 255 255 255 220 220 220 0 0 0 0 0 0 holder holder 63.5 0 0 0 0 0 0 0;
#X obj 679 499 pack f f f;
#X obj 679 419 expr ($f1+1)*127/2, f 6;
#X obj 739 419 expr ($f1+1)*127/2, f 6;
#X obj 799 419 expr ($f1+1)*127/2, f 6;
#X text 799 758 You can receive the signals sent in this object across patches using [receive keyword];
#X obj 679 759 send input_signal;
#X obj 679 679 route 0 1 2;
#X obj 679 719 pack f f f;
#X text 899 418 /!\ These data stream have different ranges for each OS/device \; /!\ If noisy signals -> Search what is a low-pass filter and how to implement it in Pd, f 43;
#X text 21 258 Route for OSC Controlled \; https://play.google.com/store/apps/details?id=com.ffsmultimedia.osccontroller&hl=de, f 25;
#X text 1079 318 See https://developer.android.com/guide/topics/sensors/sensors_position#sensors-pos-gamerot;
#X text 839 278 Route for Sensors2OSC https://sensors2.org/osc/, f 25;
#X connect 0 0 1 0 empty;
#X connect 1 0 12 0 empty;
#X connect 2 0 0 0 empty;
#X connect 3 0 2 0 empty;
#X connect 4 0 13 0 empty;
#X connect 5 0 3 0 empty;
#X connect 6 0 3 0 empty;
#X connect 12 0 4 0 empty;
#X connect 12 0 39 0 empty;
#X connect 13 0 15 0 empty;
#X connect 13 1 26 0 empty;
#X connect 13 2 27 0 empty;
#X connect 13 3 28 0 empty;
#X connect 13 4 18 0 empty;
#X connect 13 5 19 0 empty;
#X connect 15 0 25 0 empty;
#X connect 16 0 29 0 empty;
#X connect 17 0 16 0 empty;
#X connect 18 0 17 0 empty;
#X connect 19 0 17 1 empty;
#X connect 22 0 25 1 empty;
#X connect 23 0 25 2 empty;
#X connect 24 0 25 3 empty;
#X connect 25 0 14 0 empty;
#X connect 26 0 25 0 empty;
#X connect 26 1 22 0 empty;
#X connect 27 0 25 0 empty;
#X connect 27 1 23 0 empty;
#X connect 28 0 25 0 empty;
#X connect 28 1 24 0 empty;
#X connect 29 0 20 0 empty;
#X connect 29 1 21 0 empty;
#X connect 31 0 33 0 empty;
#X connect 31 1 34 0 empty;
#X connect 31 2 35 0 empty;
#X connect 32 0 36 0 empty;
#X connect 32 1 37 0 empty;
#X connect 32 2 38 0 empty;
#X connect 36 0 42 0 empty;
#X connect 37 0 43 0 empty;
#X connect 38 0 44 0 empty;
#X connect 39 0 31 0 empty;
#X connect 39 1 32 0 empty;
#X connect 40 0 47 0 empty;
#X connect 41 0 40 0 empty;
#X connect 42 0 41 0 empty;
#X connect 43 0 41 1 empty;
#X connect 44 0 41 2 empty;
#X connect 47 0 48 0 empty;
#X connect 47 1 48 1 empty;
#X connect 47 2 48 2 empty;
#X connect 48 0 46 0 empty;
