#N canvas 827 239 527 327 12;
#X obj 159 159 sig~, f 6;
#X obj 119 199 vcf~ 1, f 10;
#X obj 119 119 noise~;
#X text 359 118 Cut-of frequency in Hz;
#X obj 138 241 dac~;
#X text 19 118 Source of noise;
#X text 359 158 Q - Resonance;
#X obj 222 119 hsl 128 17 0 8000 0 0 empty empty empty -2 -8 0 10 #191919 #e1e1e1 #e1e1e1 0 1;
#X obj 222 159 hsl 128 17 1 71 0 0 empty empty empty -2 -8 0 10 #191919 #e1e1e1 #e1e1e1 0 1;
#X text 19 198 Band-pass filter;
#X obj 499 279 send output_signal;
#X obj 499 259 pack f f;
#X obj 219 199 t b f;
#X obj 159 79 loadbang;
#X obj 499 19 receive output_predicted;
#X text 619 278 For data collection;
#X text 446 631 For data collection;
#X text 659 18 From ML model;
#X obj 499 39 unpack f f;
#X text 139 38 Minimal substractive synthesis module;
#X connect 0 0 1 1 empty;
#X connect 1 0 4 0 empty;
#X connect 1 1 4 1 empty;
#X connect 2 0 1 0 empty;
#X connect 7 0 0 0 empty;
#X connect 7 0 11 0 empty;
#X connect 8 0 1 2 empty;
#X connect 8 0 12 0 empty;
#X connect 11 0 10 0 empty;
#X connect 12 0 11 0 empty;
#X connect 12 1 11 1 empty;
#X connect 13 0 7 0 empty;
#X connect 13 0 8 0 empty;
#X connect 14 0 18 0 empty;
#X connect 18 0 7 0 empty;
#X connect 18 1 8 0 empty;
