#N canvas 827 239 527 327 12;
#X obj -11881 -11601 ml.ann;
#X obj 259 619 ml.ann;
#X obj 59 119 receive input_signal, f 20;
#X obj 59 159 receive output_signal;
#X msg 639 299 train;
#X text 99 618 The regression model: Neural network, f 20;
#X msg 659 179 mode 1;
#X obj 639 139 loadbang;
#X text 639 118 Model config;
#X text 719 178 0 for classification \; 1 for regression;
#X msg 659 219 num_outputs 2;
#X text 679 298 Train neural net !;
#X obj 719 139 bng 25 250 50 0 empty empty empty 17 7 0 10 #191919 #e1e1e1 #e1e1e1;
#X text 779 218 Number of outputs N;
#X text 199 118 List of float;
#X text 199 158 List of size num_output;
#X obj 19 239 list append;
#X obj 19 159 t b l;
#X listbox 19 199 8 0 0 0 - - - 12;
#X obj 259 519 switch 3 0;
#X obj 259 39 hradio 21 1 0 3 empty empty empty 0 -11 0 12 #fcfcfc #000000 #000000 0;
#X obj 79 299 prepend add;
#X obj 279 459 prepend map;
#X obj 259 659 send output_predicted;
#X text 159 38 Left = Nothing;
#X text 99 78 1) Data collection;
#X text 639 78 2) Training;
#X text 99 458 3) Inference / Prediction;
#X text 339 38 Middle = 1) Data collection;
#X text 339 58 Right = 3) Inference / Prediction;
#X msg 639 339 clear;
#X text 679 338 Dump neural net;
#X msg 639 379 write ~/Documents/pretrained_models/my_regression;
#X msg 639 429 read ~/Documents/pretrained_models/my_regression;
#X connect 1 0 23 0 empty;
#X connect 2 0 17 0 empty;
#X connect 2 0 22 0 empty;
#X connect 3 0 18 0 empty;
#X connect 4 0 1 0 empty;
#X connect 6 0 1 0 empty;
#X connect 7 0 6 0 empty;
#X connect 7 0 10 0 empty;
#X connect 10 0 1 0 empty;
#X connect 12 0 6 0 empty;
#X connect 12 0 10 0 empty;
#X connect 16 0 21 0 empty;
#X connect 17 0 18 0 empty;
#X connect 17 1 16 1 empty;
#X connect 18 0 16 0 empty;
#X connect 19 0 1 0 empty;
#X connect 20 0 19 0 empty;
#X connect 21 0 19 1 empty;
#X connect 22 0 19 2 empty;
#X connect 30 0 1 0 empty;
#X connect 32 0 1 0 empty;
#X connect 33 0 1 0 empty;
